# xmcd
#
# Track frame offsets:
#	183
#	14863
#	30045
#	45745
#	70985
#	88648
#	105078
#	123560
#	145548
#	162350
#	183110
#	195578
#
# Disc length: 2775 seconds
#
# Revision: 4
# Processed by: cddbd v1.5PL3 Copyright (c) Steve Scherf et al.
# Submitted via: EasyCDDAExtractor 5.1.0
#
DISCID=920ad50c
DTITLE=Grant and Forsyth - Country Love Songs
DYEAR=1990
DGENRE=Country
TTITLE0=Sometimes When We Touch
TTITLE1=Somewhere Between
TTITLE2=Always On My Mind
TTITLE3=Medley
TTITLE4=Nobody Loves Me
TTITLE5=To Know You Is to Love You
TTITLE6=An American Trilogy
TTITLE7=I'll Still Be Loving You
TTITLE8=Turn Between Two Lovers
TTITLE9=Medley
TTITLE10=Love Letters
TTITLE11=Make Believe
EXTD=
EXTT0=
EXTT1=
EXTT2=
EXTT3=
EXTT4=
EXTT5=
EXTT6=
EXTT7=
EXTT8=
EXTT9=
EXTT10=
EXTT11=
PLAYORDER=
